<svg version="1.0" xmlns="http://www.w3.org/2000/svg" width="726.000000pt" height="486.000000pt" viewBox="0 0 726.000000 486.000000" preserveAspectRatio="xMidYMid meet" style="width: 494.428px; height: auto;"> <g transform="translate(0.000000,486.000000) scale(0.100000,-0.100000)" fill="#b65916" stroke="none"> <path d="M5435 4790 c-73 -9 -313 -95 -338 -121 -10 -10 -23 -19 -30 -19 -14 0 -77 -51 -139 -112 -44 -43 -123 -162 -131 -198 -3 -14 -15 -59 -27 -100 -27 -97 -40 -328 -19 -351 8 -7 15 -38 16 -66 1 -29 9 -66 18 -82 8 -17 15 -39 15 -49 0 -11 7 -25 15 -32 8 -6 17 -22 21 -33 8 -27 55 -99 71 -110 7 -4 13 -13 13 -20 0 -16 95 -97 113 -97 8 0 14 -8 13 -17 0 -10 8 -19 19 -21 11 -2 27 -9 35 -16 18 -14 184 -86 200 -86 6 0 38 -12 72 -26 37 -16 74 -24 94 -22 22 3 35 -1 42 -13 7 -11 30 -18 69 -21 32 -3 85 -16 118 -28 123 -46 149 -37 126 42 -11 36 -11 44 6 66 11 14 32 29 48 33 133 36 336 193 405 314 63 110 81 186 87 360 7 205 -7 283 -80 434 -59 123 -248 295 -347 316 -19 4 -42 13 -50 19 -23 18 -117 44 -203 56 -85 11 -159 11 -252 0z"></path> <path d="M1460 4280 c-291 -51 -569 -248 -757 -535 -48 -74 -131 -239 -168 -335 -20 -52 -40 -104 -45 -115 -27 -58 -83 -265 -105 -385 -3 -19 -12 -62 -20 -95 -8 -33 -19 -130 -25 -215 -13 -165 -3 -339 25 -430 7 -25 16 -61 20 -80 28 -141 103 -287 199 -388 135 -143 316 -222 475 -208 122 11 174 33 272 119 178 155 234 261 172 329 -14 16 -26 18 -87 12 -164 -15 -301 57 -400 211 -83 130 -89 363 -14 620 11 39 24 88 30 110 5 22 13 44 19 50 5 5 9 16 9 25 0 8 7 29 16 45 8 17 24 54 34 83 23 64 127 245 187 325 23 31 43 60 43 64 0 9 107 112 151 146 75 57 179 100 258 107 69 7 77 10 107 43 86 93 67 247 -46 379 -46 54 -121 92 -220 114 -71 15 -66 15 -130 4z"></path> <path d="M3055 4206 c-45 -19 -95 -81 -95 -116 0 -17 -6 -69 -14 -117 -17 -101 -33 -445 -41 -873 -6 -299 -27 -638 -45 -720 -5 -25 -14 -90 -20 -145 -30 -295 -74 -422 -161 -468 -69 -36 -181 18 -208 100 -17 53 -32 437 -36 943 -3 454 -6 481 -55 550 -27 37 -106 89 -170 112 -59 21 -171 30 -236 20 -93 -15 -163 -92 -192 -212 -6 -25 -13 -110 -16 -190 -3 -80 -11 -165 -18 -190 -20 -75 -17 -572 5 -695 37 -217 77 -368 132 -501 90 -218 267 -395 472 -474 154 -59 229 -38 368 106 82 85 93 94 127 94 44 0 79 -31 175 -155 89 -116 133 -155 184 -166 60 -14 134 -2 199 32 66 34 78 44 113 90 47 62 38 85 -58 153 -26 18 -27 19 -21 110 3 50 8 242 11 426 3 184 9 436 14 560 18 408 10 819 -19 1035 -40 289 -71 438 -105 495 -11 19 -26 47 -32 61 -19 44 -74 99 -124 125 -54 27 -89 30 -134 10z"></path> <path d="M4069 3936 c-53 -26 -97 -135 -118 -290 -6 -43 -14 -83 -17 -88 -7 -11 -20 -608 -30 -1357 -9 -621 7 -823 77 -1018 44 -124 116 -224 195 -273 57 -36 141 -51 279 -51 130 0 353 28 394 51 11 5 30 10 43 10 13 0 35 6 50 14 15 8 40 17 57 21 17 4 31 10 31 14 0 5 19 16 43 27 49 22 118 82 159 138 22 31 28 49 28 93 0 59 -14 92 -70 168 -44 59 -58 71 -129 114 -63 38 -102 38 -233 3 -122 -33 -169 -37 -212 -17 -74 35 -71 1 -71 745 0 781 -5 859 -82 1220 -9 41 -29 104 -45 140 -16 36 -34 76 -40 90 -44 97 -137 197 -218 232 -57 25 -66 27 -91 14z"></path> <path d="M6580 3066 c-25 -7 -70 -20 -100 -29 -30 -9 -95 -26 -145 -38 -49 -12 -104 -27 -121 -35 -17 -7 -82 -25 -145 -39 -63 -14 -150 -34 -194 -45 -207 -50 -401 -71 -618 -69 -83 0 -159 -2 -169 -6 -9 -3 -22 -20 -29 -37 -24 -59 32 -367 86 -468 17 -33 68 -67 119 -81 23 -6 122 -15 221 -19 173 -7 211 -14 245 -42 48 -40 90 -140 116 -278 8 -41 21 -106 29 -145 8 -38 19 -95 25 -125 6 -30 19 -89 30 -130 53 -195 65 -221 133 -292 37 -39 264 -14 332 36 17 12 38 25 47 29 10 3 31 25 48 48 26 37 30 50 30 108 -1 67 -27 253 -53 371 -8 36 -22 101 -32 145 -9 44 -21 98 -25 120 -12 54 -12 218 0 249 15 42 117 113 215 151 137 54 179 84 199 141 9 26 16 74 16 106 0 68 -17 194 -30 223 -5 11 -17 41 -28 66 -37 88 -99 114 -202 85z"></path> <path d="M1505 956 c-8 -12 -17 -36 -21 -52 -5 -27 -2 -33 44 -61 27 -17 65 -36 85 -42 19 -7 45 -21 58 -31 12 -11 32 -20 45 -20 13 0 26 -5 29 -10 4 -6 28 -20 53 -31 26 -11 80 -36 120 -55 40 -19 77 -34 83 -34 12 0 117 -43 159 -65 14 -7 42 -16 63 -20 20 -4 40 -11 43 -16 3 -5 15 -9 27 -9 13 0 31 -6 42 -13 11 -8 29 -16 40 -20 174 -49 242 -70 250 -78 5 -5 23 -9 40 -9 16 -1 41 -7 55 -15 14 -8 46 -14 72 -15 26 0 49 -4 52 -9 4 -5 25 -12 49 -16 62 -9 229 -45 238 -51 4 -2 38 -9 76 -14 163 -22 208 -31 223 -45 9 -8 27 -15 39 -15 12 0 34 -6 49 -14 15 -7 43 -16 63 -20 21 -4 49 -16 63 -27 30 -24 114 -36 143 -21 16 9 22 24 25 67 3 30 7 57 9 60 3 2 86 7 184 10 99 3 218 12 265 20 47 8 130 21 185 30 189 30 325 58 325 66 0 5 11 9 24 9 14 0 56 11 94 25 38 14 77 25 86 25 25 0 134 38 201 70 33 15 71 32 85 35 14 4 30 11 35 15 6 4 34 15 62 24 29 10 72 28 95 42 24 13 63 33 88 45 68 31 122 60 149 81 13 10 29 18 35 18 19 0 66 54 66 76 0 32 -38 84 -60 84 -25 0 -67 -21 -129 -64 -25 -17 -57 -37 -71 -44 -14 -7 -38 -21 -55 -32 -16 -11 -46 -27 -65 -36 -19 -8 -53 -24 -76 -35 -22 -10 -44 -19 -49 -19 -5 0 -16 -6 -24 -13 -24 -20 -144 -66 -236 -92 -33 -9 -69 -21 -80 -27 -11 -7 -38 -15 -60 -19 -22 -4 -78 -19 -125 -33 -47 -13 -130 -32 -185 -40 -55 -9 -122 -21 -150 -27 -270 -54 -1082 -57 -1252 -4 -23 7 -99 21 -170 30 -70 10 -171 28 -223 41 -52 13 -124 31 -160 39 -69 16 -192 52 -225 66 -11 5 -51 18 -90 30 -38 12 -79 28 -90 35 -11 8 -29 14 -40 14 -11 0 -29 6 -40 14 -11 7 -33 16 -50 20 -37 9 -153 65 -161 78 -3 5 -13 8 -22 7 -21 -3 -145 56 -162 76 -7 8 -18 15 -25 15 -7 0 -18 7 -26 16 -7 9 -21 13 -33 10 -13 -3 -27 3 -41 18 -30 33 -99 34 -120 2z"></path> </g> </svg>